<?xml version="1.0" standalone="no"?><!DOCTYPE svg PUBLIC "-//W3C//DTD SVG 1.1//EN" "http://www.w3.org/Graphics/SVG/1.1/DTD/svg11.dtd"><svg t="1598003560918" class="icon" viewBox="0 0 1024 1024" version="1.1" xmlns="http://www.w3.org/2000/svg" p-id="17539" xmlns:xlink="http://www.w3.org/1999/xlink" width="200" height="200"><defs><style type="text/css"></style></defs><path d="M624 155.008h-53.504c-0.384 0-0.768-0.384-0.768-0.768V100.736c0-0.384 0.384-0.768 0.768-0.768h53.504c0.384 0 0.768 0.384 0.768 0.768v53.504c0 0.512-0.256 0.768-0.768 0.768z" fill="#4274C6" p-id="17540"></path><path d="M618.752 169.472h-43.008c-11.264 0-20.48-9.216-20.48-20.48V105.984c0-11.264 9.216-20.48 20.48-20.48h43.008c11.264 0 20.48 9.216 20.48 20.48v43.008c0 11.264-9.216 20.48-20.48 20.48z m-34.688-28.8h26.368V114.304h-26.368v26.368zM511.232 889.216c-89.216 0-133.376-12.032-151.68-19.2-13.184-5.12-22.784-17.024-24.96-31.104l-79.232-500.096H766.72l-69.632 498.816c-2.176 15.104-12.416 27.52-26.752 32.512-20.992 7.04-69.376 19.072-159.104 19.072z m-130.048-62.464c15.616 5.248 53.76 14.336 130.048 14.336 78.208 0 120.96-9.6 139.008-15.104L711.552 386.56H311.552l69.632 440.192z" fill="#262626" p-id="17541"></path><path d="M721.024 313.344H301.568v-77.568c0-58.624 47.616-106.24 106.24-106.24h206.848c58.624 0 106.24 47.616 106.24 106.24v77.568z m-371.456-48h323.456v-29.696c0-32.128-26.112-58.24-58.24-58.24H407.936c-32.128 0-58.24 26.112-58.24 58.24v29.696z" fill="#262626" p-id="17542"></path><path d="M749.056 371.072l-236.416 8.96h-5.504l-233.728-8.96c-9.216-0.384-16-8.832-14.336-17.92l15.872-83.84c2.816-5.248 11.392-10.112 17.92-10.112h441.216c6.784 0 10.752 5.248 13.44 10.88l15.872 82.944c1.792 9.088-4.992 17.664-14.336 18.048z" fill="#DAE3ED" p-id="17543"></path><path d="M507.136 403.968l-234.624-8.96c-11.392-0.384-22.016-5.76-29.184-14.72-7.168-8.96-9.984-20.48-7.808-31.744l16.64-87.424 1.792-3.328c7.04-13.184 23.552-22.656 39.04-22.656h441.216c8.704 0 24.96 3.2 35.072 24.704l1.28 2.816 16.512 85.888c2.176 11.264-0.64 22.784-7.808 31.744s-17.792 14.336-29.184 14.72l-242.944 8.96z m-222.464-56.448l223.488 8.576h4.608l225.152-8.576-12.288-64.256h-428.8l-12.16 64.256z" fill="#262626" p-id="17544"></path><path d="M275.072 449.792s210.56 26.88 472.576 0L699.52 762.88s-194.944 32.64-369.536 2.304l-54.912-315.392z" fill="#d81e06" p-id="17545" data-spm-anchor-id="a313x.7781069.0.i44" class="selected"></path><path d="M496.128 802.176c-53.888 0-112.896-3.456-170.24-13.312-9.984-1.792-17.792-9.6-19.584-19.584l-54.912-315.392c-1.28-7.552 1.024-15.232 6.272-20.736 5.248-5.504 12.8-8.192 20.352-7.168 2.048 0.256 211.2 26.24 467.072-0.128 7.424-0.768 14.72 1.92 19.84 7.296s7.424 12.8 6.272 20.224L723.2 766.592c-1.536 10.24-9.6 18.304-19.712 19.968-5.504 0.896-95.232 15.616-207.36 15.616zM350.72 744.192c134.528 20.096 279.04 4.096 327.808-2.432l40.704-265.088c-189.184 16.768-349.184 6.272-415.104 0.256L350.72 744.192z" fill="#262626" p-id="17546"></path><path d="M512.128 570.112c-25.088 0.896-44.416 21.504-50.688 39.936-9.728 28.544 7.936 44.672 24.192 44.672 10.24 0 21.888-16.384 17.024-31.872-7.552-24.064 29.952-53.376 9.472-52.736zM512.128 657.792c25.088-0.896 42.752-21.504 49.024-39.936 9.728-28.544-7.936-44.672-25.472-44.672-6.4 0-20.096 8.32-15.744 31.872 4.48 25.088-28.288 53.376-7.808 52.736z" fill="#FFFFFF" p-id="17547" data-spm-anchor-id="a313x.7781069.0.i45" class=""></path></svg>